<?xml version="1.0" encoding="UTF-8"?>
<svg version="1.1" xmlns="http://www.w3.org/2000/svg" width="1440" height="900">
<path d="M0 0 C29.7 0 59.4 0 90 0 C90 48.18 90 96.36 90 146 C123 146 156 146 190 146 C190 97.82 190 49.64 190 0 C201.22 0 212.44 0 224 0 C224 21.78 224 43.56 224 66 C250.73 66 277.46 66 305 66 C305 81.84 305 97.68 305 114 C318.53 114 332.06 114 346 114 C346 161.19 346 208.38 346 257 C383.95 257 421.9 257 461 257 C461 237.2 461 217.4 461 197 C505.22 197 549.44 197 595 197 C595 235.61 595 274.22 595 314 C616.78 313.505 616.78 313.505 639 313 C639 308.05 639 303.1 639 298 C653.19 298 667.38 298 682 298 C682 247.84 682 197.68 682 146 C694.54 145.67 707.08 145.34 720 145 C720 166.12 720 187.24 720 209 C726.93 209 733.86 209 741 209 C741 224.51 741 240.02 741 256 C749.91 256 758.82 256 768 256 C768 209.14 768 162.28 768 114 C788.13 114 808.26 114 829 114 C829 174.72 829 235.44 829 298 C862 298 895 298 929 298 C929 321.76 929 345.52 929 370 C967.28 370 1005.56 370 1045 370 C1045 327.43 1045 284.86 1045 241 C1066.12 241 1087.24 241 1109 241 C1109 178.96 1109 116.92 1109 53 C1136.06 53 1163.12 53 1191 53 C1191 110.75 1191 168.5 1191 228 C1205.19 228 1219.38 228 1234 228 C1234 195.99 1234 163.98 1234 131 C1261.39 131 1288.78 131 1317 131 C1317 87.77 1317 44.54 1317 0 C1332.84 0 1348.68 0 1365 0 C1365 79.53 1365 159.06 1365 241 C1379.19 241 1393.38 241 1408 241 C1408 172.03 1408 103.06 1408 32 C1418.56 32 1429.12 32 1440 32 C1440 180.5 1440 329 1440 482 C964.8 482 489.6 482 0 482 C0 322.94 0 163.88 0 0 Z " fill="#FEF1F2" transform="translate(0,418)"/>
<path d="M0 0 C29.04 0 58.08 0 88 0 C89.15521548 2.31043095 89.12432413 3.61120561 89.12304783 6.18167305 C89.12503888 7.06347083 89.12702993 7.94526861 89.12908131 8.85378754 C89.12616847 9.82848083 89.12325563 10.80317412 89.12025452 11.80740356 C89.12110894 12.83816761 89.12196337 13.86893165 89.12284368 14.93093097 C89.12449931 18.40725906 89.11897575 21.88353959 89.11352539 25.35986328 C89.11324351 27.84288532 89.11340127 30.32590745 89.1139679 32.80892944 C89.11419609 38.16623682 89.11134779 43.5235292 89.10573006 48.88083267 C89.09761297 56.62665202 89.09499962 64.37246548 89.09374207 72.11828862 C89.09155188 84.68449392 89.08489268 97.25069275 89.07543945 109.81689453 C89.06626449 122.02587858 89.05918406 134.23486086 89.05493164 146.44384766 C89.05466892 147.19604509 89.05440619 147.94824253 89.05413551 148.72323383 C89.0528305 152.49667851 89.05156678 156.2701232 89.05032361 160.0435679 C89.03995202 191.36238434 89.02151426 222.68118874 89 254 C59.63 254 30.26 254 0 254 C0 170.18 0 86.36 0 0 Z " fill="#FEE7EA" transform="translate(1147,646)"/>
<path d="M0 0 C13.53 0 27.06 0 41 0 C41 76.56 41 153.12 41 232 C27.47 232 13.94 232 0 232 C0 155.44 0 78.88 0 0 Z " fill="#FEE4E7" transform="translate(305,532)"/>
<path d="M0 0 C13.53 0 27.06 0 41 0 C41 1.65 41 3.3 41 5 C27.47 5 13.94 5 0 5 C0 3.35 0 1.7 0 0 Z " fill="#FEE4E7" transform="translate(305,895)"/>
<path d="M0 0 C3.63 0 7.26 0 11 0 C11 3.96 11 7.92 11 12 C7.37 12 3.74 12 0 12 C0 8.04 0 4.08 0 0 Z " fill="#FFFBFB" transform="translate(29,546)"/>
<path d="M0 0 C3.63 0 7.26 0 11 0 C11 3.96 11 7.92 11 12 C7.37 12 3.74 12 0 12 C0 8.04 0 4.08 0 0 Z " fill="#FFFBFB" transform="translate(11,546)"/>
<path d="M0 0 C3.63 0 7.26 0 11 0 C11 3.96 11 7.92 11 12 C7.37 12 3.74 12 0 12 C0 8.04 0 4.08 0 0 Z " fill="#FFFBFB" transform="translate(11,455)"/>
<path d="M0 0 C3.63 0 7.26 0 11 0 C11.09765625 8.49609375 11.09765625 8.49609375 11 11 C10 12 10 12 7.71484375 12.09765625 C5.14322917 12.06510417 2.57161458 12.03255208 0 12 C0 8.04 0 4.08 0 0 Z " fill="#FFFBFB" transform="translate(11,637)"/>
<path d="M0 0 C3.63 0 7.26 0 11 0 C11.09765625 8.49609375 11.09765625 8.49609375 11 11 C10 12 10 12 7.71484375 12.09765625 C5.14322917 12.06510417 2.57161458 12.03255208 0 12 C0 8.04 0 4.08 0 0 Z " fill="#FFFBFB" transform="translate(11,528)"/>
<path d="M0 0 C3.63 0 7.26 0 11 0 C11.09765625 8.49609375 11.09765625 8.49609375 11 11 C10 12 10 12 7.71484375 12.09765625 C5.14322917 12.06510417 2.57161458 12.03255208 0 12 C0 8.04 0 4.08 0 0 Z " fill="#FFFAFB" transform="translate(29,455)"/>
<path d="M0 0 C3.63 0 7.26 0 11 0 C11.09765625 8.49609375 11.09765625 8.49609375 11 11 C10 12 10 12 7.71484375 12.09765625 C5.14322917 12.06510417 2.57161458 12.03255208 0 12 C0 8.04 0 4.08 0 0 Z " fill="#FFFAFB" transform="translate(29,437)"/>
<path d="M0 0 C3.63 0 7.26 0 11 0 C11.09765625 8.49609375 11.09765625 8.49609375 11 11 C10 12 10 12 7.96875 12.1328125 C7.1540625 12.13023437 6.339375 12.12765625 5.5 12.125 C4.6853125 12.12757813 3.870625 12.13015625 3.03125 12.1328125 C1 12 1 12 0 11 C-0.14310287 7.3308423 -0.04221662 3.67284559 0 0 Z " fill="#FFFBFB" transform="translate(66,528)"/>
<path d="M0 0 C3.3 0 6.6 0 10 0 C11.1898306 2.3796612 11.13349966 3.91485735 11.125 6.5625 C11.12757812 7.36816406 11.13015625 8.17382812 11.1328125 9.00390625 C11 11 11 11 10 12 C8.50261876 12.0979057 7.00057108 12.12974864 5.5 12.125 C4.6853125 12.12757813 3.870625 12.13015625 3.03125 12.1328125 C1 12 1 12 0 11 C-0.07226502 9.14712498 -0.0838122 7.29166122 -0.0625 5.4375 C-0.05347656 4.42558594 -0.04445313 3.41367187 -0.03515625 2.37109375 C-0.02355469 1.58863281 -0.01195313 0.80617188 0 0 Z " fill="#FFFAFA" transform="translate(66,637)"/>
<path d="M0 0 C3.63 0 7.26 0 11 0 C11 3.63 11 7.26 11 11 C7.37 11 3.74 11 0 11 C0 7.37 0 3.74 0 0 Z " fill="#FFFBFB" transform="translate(66,674)"/>
<path d="M0 0 C3.63 0 7.26 0 11 0 C11 3.63 11 7.26 11 11 C7.37 11 3.74 11 0 11 C0 7.37 0 3.74 0 0 Z " fill="#FFFBFB" transform="translate(47,674)"/>
<path d="M0 0 C3.63 0 7.26 0 11 0 C11 3.63 11 7.26 11 11 C7.37 11 3.74 11 0 11 C0 7.37 0 3.74 0 0 Z " fill="#FFFBFB" transform="translate(29,674)"/>
<path d="M0 0 C3.63 0 7.26 0 11 0 C11 3.63 11 7.26 11 11 C7.37 11 3.74 11 0 11 C0 7.37 0 3.74 0 0 Z " fill="#FFFCFC" transform="translate(11,674)"/>
<path d="M0 0 C3.63 0 7.26 0 11 0 C11 3.63 11 7.26 11 11 C7.37 11 3.74 11 0 11 C0 7.37 0 3.74 0 0 Z " fill="#FFFCFC" transform="translate(29,656)"/>
<path d="M0 0 C3.63 0 7.26 0 11 0 C11 3.63 11 7.26 11 11 C7.37 11 3.74 11 0 11 C0 7.37 0 3.74 0 0 Z " fill="#FFFCFC" transform="translate(11,656)"/>
<path d="M0 0 C3.63 0 7.26 0 11 0 C11 3.63 11 7.26 11 11 C7.37 11 3.74 11 0 11 C0 7.37 0 3.74 0 0 Z " fill="#FFFBFB" transform="translate(47,619)"/>
<path d="M0 0 C3.63 0 7.26 0 11 0 C11 3.63 11 7.26 11 11 C7.37 11 3.74 11 0 11 C0 7.37 0 3.74 0 0 Z " fill="#FFFBFB" transform="translate(29,619)"/>
<path d="M0 0 C3.63 0 7.26 0 11 0 C11 3.63 11 7.26 11 11 C7.37 11 3.74 11 0 11 C0 7.37 0 3.74 0 0 Z " fill="#FFFCFC" transform="translate(11,619)"/>
<path d="M0 0 C3.63 0 7.26 0 11 0 C11 3.63 11 7.26 11 11 C7.37 11 3.74 11 0 11 C0 7.37 0 3.74 0 0 Z " fill="#FFFCFC" transform="translate(11,601)"/>
<path d="M0 0 C3.63 0 7.26 0 11 0 C11 3.63 11 7.26 11 11 C7.37 11 3.74 11 0 11 C0 7.37 0 3.74 0 0 Z " fill="#FFFBFB" transform="translate(65,583)"/>
<path d="M0 0 C3.63 0 7.26 0 11 0 C11 3.63 11 7.26 11 11 C7.37 11 3.74 11 0 11 C0 7.37 0 3.74 0 0 Z " fill="#FFFBFB" transform="translate(47,583)"/>
<path d="M0 0 C3.63 0 7.26 0 11 0 C11 3.63 11 7.26 11 11 C7.37 11 3.74 11 0 11 C0 7.37 0 3.74 0 0 Z " fill="#FFFBFB" transform="translate(65,565)"/>
<path d="M0 0 C3.63 0 7.26 0 11 0 C11 3.63 11 7.26 11 11 C7.37 11 3.74 11 0 11 C0 7.37 0 3.74 0 0 Z " fill="#FFFBFB" transform="translate(47,565)"/>
<path d="M0 0 C3.63 0 7.26 0 11 0 C11 3.63 11 7.26 11 11 C7.37 11 3.74 11 0 11 C0 7.37 0 3.74 0 0 Z " fill="#FFFCFC" transform="translate(29,565)"/>
<path d="M0 0 C3.63 0 7.26 0 11 0 C11 3.63 11 7.26 11 11 C7.37 11 3.74 11 0 11 C0 7.37 0 3.74 0 0 Z " fill="#FFFBFB" transform="translate(47,547)"/>
<path d="M0 0 C3.63 0 7.26 0 11 0 C11 3.63 11 7.26 11 11 C7.37 11 3.74 11 0 11 C0 7.37 0 3.74 0 0 Z " fill="#FFFBFB" transform="translate(29,528)"/>
<path d="M0 0 C3.63 0 7.26 0 11 0 C11 3.63 11 7.26 11 11 C7.37 11 3.74 11 0 11 C0 7.37 0 3.74 0 0 Z " fill="#FFFCFC" transform="translate(11,510)"/>
<path d="M0 0 C3.63 0 7.26 0 11 0 C11 3.63 11 7.26 11 11 C7.37 11 3.74 11 0 11 C0 7.37 0 3.74 0 0 Z " fill="#FFFBFB" transform="translate(65,492)"/>
<path d="M0 0 C3.63 0 7.26 0 11 0 C11 3.63 11 7.26 11 11 C7.37 11 3.74 11 0 11 C0 7.37 0 3.74 0 0 Z " fill="#FFFBFB" transform="translate(47,492)"/>
<path d="M0 0 C3.63 0 7.26 0 11 0 C11 3.63 11 7.26 11 11 C7.37 11 3.74 11 0 11 C0 7.37 0 3.74 0 0 Z " fill="#FFFBFB" transform="translate(29,492)"/>
<path d="M0 0 C3.63 0 7.26 0 11 0 C11 3.63 11 7.26 11 11 C7.37 11 3.74 11 0 11 C0 7.37 0 3.74 0 0 Z " fill="#FFFCFC" transform="translate(11,492)"/>
<path d="M0 0 C3.63 0 7.26 0 11 0 C11 3.63 11 7.26 11 11 C7.37 11 3.74 11 0 11 C0 7.37 0 3.74 0 0 Z " fill="#FFFBFB" transform="translate(29,474)"/>
<path d="M0 0 C3.63 0 7.26 0 11 0 C11 3.63 11 7.26 11 11 C7.37 11 3.74 11 0 11 C0 7.37 0 3.74 0 0 Z " fill="#FFFCFC" transform="translate(11,474)"/>
<path d="M0 0 C3.63 0 7.26 0 11 0 C11.09765625 7.71484375 11.09765625 7.71484375 11 10 C10 11 10 11 7.71484375 11.09765625 C5.14322917 11.06510417 2.57161458 11.03255208 0 11 C0 7.37 0 3.74 0 0 Z " fill="#FFFBFB" transform="translate(66,619)"/>
<path d="M0 0 C3.63 0 7.26 0 11 0 C11.09765625 7.71484375 11.09765625 7.71484375 11 10 C10 11 10 11 7.71484375 11.09765625 C5.14322917 11.06510417 2.57161458 11.03255208 0 11 C0 7.37 0 3.74 0 0 Z " fill="#FFFBFB" transform="translate(66,601)"/>
<path d="M0 0 C3.63 0 7.26 0 11 0 C11 3.63 11 7.26 11 11 C3.28515625 11.09765625 3.28515625 11.09765625 1 11 C0 10 0 10 -0.09765625 7.71484375 C-0.06510417 5.14322917 -0.03255208 2.57161458 0 0 Z " fill="#FFFBFB" transform="translate(65,510)"/>
<path d="M0 0 C2.57161458 0.03255208 5.14322917 0.06510417 7.71484375 0.09765625 C7.71484375 3.72765625 7.71484375 7.35765625 7.71484375 11.09765625 C0 11.1953125 0 11.1953125 -2.28515625 11.09765625 C-3.28515625 10.09765625 -3.28515625 10.09765625 -3.41796875 8.06640625 C-3.41539063 7.25171875 -3.4128125 6.43703125 -3.41015625 5.59765625 C-3.41273437 4.78296875 -3.4153125 3.96828125 -3.41796875 3.12890625 C-3.22757857 0.21705639 -2.92223949 0.12488203 0 0 Z " fill="#FFFBFB" transform="translate(50.28515625,636.90234375)"/>
<path d="M0 0 C2.57161458 0.03255208 5.14322917 0.06510417 7.71484375 0.09765625 C7.71484375 3.72765625 7.71484375 7.35765625 7.71484375 11.09765625 C0 11.1953125 0 11.1953125 -2.28515625 11.09765625 C-3.28515625 10.09765625 -3.28515625 10.09765625 -3.41796875 8.06640625 C-3.41539063 7.25171875 -3.4128125 6.43703125 -3.41015625 5.59765625 C-3.41273437 4.78296875 -3.4153125 3.96828125 -3.41796875 3.12890625 C-3.22757857 0.21705639 -2.92223949 0.12488203 0 0 Z " fill="#FFFBFB" transform="translate(68.28515625,436.90234375)"/>
<path d="M0 0 C3.63 0 7.26 0 11 0 C11 3.3 11 6.6 11 10 C7.37 10 3.74 10 0 10 C0 6.7 0 3.4 0 0 Z " fill="#FFFBFB" transform="translate(29,638)"/>
<path d="M0 0 C3.63 0 7.26 0 11 0 C11 3.3 11 6.6 11 10 C7.37 10 3.74 10 0 10 C0 6.7 0 3.4 0 0 Z " fill="#FFFBFB" transform="translate(47,456)"/>
</svg>
